<?xml version="1.0" standalone="no"?>
<!DOCTYPE svg PUBLIC "-//W3C//DTD SVG 20010904//EN"
 "http://www.w3.org/TR/2001/REC-SVG-20010904/DTD/svg10.dtd">
<svg version="1.0" xmlns="http://www.w3.org/2000/svg"
 width="564.000000pt" height="564.000000pt" viewBox="0 0 564.000000 564.000000"
 preserveAspectRatio="xMidYMid meet">

<g transform="translate(0.000000,564.000000) scale(0.100000,-0.100000)"
fill="#000000" stroke="none">
<path d="M0 2820 l0 -2820 2820 0 2820 0 0 2820 0 2820 -2820 0 -2820 0 0
-2820z m880 2616 c0 -3 -4 -8 -10 -11 -5 -3 -10 -1 -10 4 0 6 5 11 10 11 6 0
10 -2 10 -4z m2750 -136 c0 -5 -2 -10 -4 -10 -3 0 -8 5 -11 10 -3 6 -1 10 4
10 6 0 11 -4 11 -10z m-1303 -76 c-3 -3 -12 -4 -19 -1 -8 3 -5 6 6 6 11 1 17
-2 13 -5z m3093 -64 c0 -5 -4 -10 -10 -10 -5 0 -10 5 -10 10 0 6 5 10 10 10 6
0 10 -4 10 -10z m-2280 -71 c0 -5 -4 -9 -10 -9 -5 0 -10 7 -10 16 0 8 5 12 10
9 6 -3 10 -10 10 -16z m1540 -29 c0 -5 -7 -10 -15 -10 -8 0 -15 5 -15 10 0 6
7 10 15 10 8 0 15 -4 15 -10z m450 -80 c0 -5 -2 -10 -4 -10 -3 0 -8 5 -11 10
-3 6 -1 10 4 10 6 0 11 -4 11 -10z m-3630 -60 c0 -5 -4 -10 -10 -10 -5 0 -10
5 -10 10 0 6 5 10 10 10 6 0 10 -4 10 -10z m3400 -20 c0 -5 -7 -10 -15 -10 -8
0 -15 5 -15 10 0 6 7 10 15 10 8 0 15 -4 15 -10z m-1986 -105 c101 -17 235
-119 337 -256 28 -38 54 -69 59 -69 4 0 23 7 43 15 70 29 194 57 264 58 41 1
73 6 73 12 0 6 4 5 8 -1 4 -7 25 -17 48 -23 84 -22 165 -94 212 -187 49 -96
64 -179 67 -364 l3 -175 -8 165 c-4 95 -14 194 -23 233 -45 183 -159 303 -306
323 -58 7 -64 1 -22 -21 35 -18 151 -123 151 -136 0 -6 9 -22 21 -38 11 -15
22 -34 23 -42 10 -48 20 -76 35 -88 10 -8 12 -15 5 -18 -8 -3 -8 -21 2 -66 25
-116 9 -440 -25 -517 -9 -19 -10 -3 -4 70 5 52 8 174 8 270 0 188 -10 254 -51
325 -13 22 -26 47 -30 56 -3 9 -27 23 -52 29 -55 15 -206 84 -238 109 -19 15
-33 16 -76 10 -64 -9 -108 -25 -108 -39 0 -6 16 -42 36 -81 47 -95 39 -97 -10
-3 -22 41 -46 74 -53 74 -37 0 -238 -127 -238 -151 0 -8 -8 -13 -17 -13 -20 2
-83 -50 -204 -166 -91 -87 -143 -129 -91 -73 32 34 34 47 8 38 -11 -3 -22 -1
-26 4 -7 13 -31 -11 -69 -69 -16 -25 -52 -72 -79 -105 -46 -55 -107 -164 -107
-191 0 -8 52 -14 158 -18 86 -4 242 -11 345 -17 203 -12 226 -8 188 30 -12 12
-19 26 -16 32 7 10 -78 134 -163 239 -41 51 -40 50 25 -16 38 -38 103 -119
144 -179 51 -75 85 -114 109 -126 33 -17 246 -62 300 -64 14 0 30 -3 35 -7 24
-14 210 -58 227 -53 10 4 18 15 18 26 0 10 5 19 10 19 6 0 10 -13 10 -28 0
-20 8 -32 31 -46 16 -10 36 -15 44 -12 8 3 17 1 20 -4 3 -5 22 -14 43 -20 44
-14 245 -109 252 -120 3 -3 37 -28 75 -53 39 -26 94 -68 124 -94 130 -115 158
-317 63 -471 -31 -52 -116 -144 -154 -168 -30 -19 -41 -35 -53 -78 -21 -72
-52 -115 -100 -140 -51 -26 -108 -25 -145 3 -30 22 -74 28 -84 12 -4 -5 -24
-12 -46 -16 -22 -4 -42 -10 -45 -15 -3 -4 -14 -6 -24 -3 -37 10 -40 -24 -15
-167 42 -245 29 -526 -31 -639 -24 -46 -109 -119 -170 -147 -90 -40 -244 -44
-336 -9 -19 7 -24 2 -94 -84 -27 -33 -54 -61 -58 -61 -5 0 14 26 42 58 27 31
52 68 55 82 6 23 1 27 -46 47 -29 12 -64 25 -77 29 -33 9 -143 80 -213 137
-31 25 -59 43 -62 40 -3 -4 -6 1 -6 11 0 25 -28 31 -50 11 -10 -9 -23 -14 -28
-11 -5 3 -20 -8 -32 -24 -13 -17 -25 -28 -27 -26 -3 2 -13 -3 -23 -12 -37 -33
-53 -45 -162 -118 -61 -41 -117 -74 -125 -74 -7 0 -13 -4 -13 -10 0 -5 -6 -10
-14 -10 -7 0 -34 -9 -60 -20 -79 -35 -223 -62 -292 -55 -130 14 -241 96 -276
206 -29 88 -48 174 -48 214 0 31 -8 44 -58 93 -65 63 -122 157 -122 199 1 36
15 53 72 86 26 15 54 37 63 49 12 19 15 19 15 5 0 -25 16 -21 39 12 16 23 21
43 20 90 -1 34 -3 61 -6 61 -2 0 -13 -19 -24 -42 -11 -24 -17 -35 -14 -24 3
10 3 33 -1 50 -5 27 -13 34 -67 54 -88 33 -289 137 -339 176 -81 61 -108 85
-139 121 -19 22 -44 51 -57 65 -29 31 -87 144 -96 187 -12 54 3 101 48 148 22
24 58 67 80 97 21 29 65 73 97 98 32 25 58 48 59 53 0 4 7 7 15 7 8 0 15 3 15
8 0 4 9 12 19 17 11 6 50 27 88 48 37 22 122 61 188 87 66 27 125 57 131 67
16 26 6 103 -13 103 -12 0 -13 3 -4 13 8 10 8 49 1 140 -5 70 -7 132 -5 139 3
7 6 72 8 143 4 108 9 142 31 204 14 41 38 89 52 108 30 39 97 72 146 71 18 0
58 5 88 12 33 7 86 10 133 6 42 -3 91 -3 107 1 28 5 71 42 104 88 14 19 14 19
9 -6 -4 -24 -3 -25 49 -25 97 0 164 -65 166 -161 2 -55 15 -77 86 -138 l55
-47 36 22 c21 13 34 17 33 10 -6 -28 22 -18 68 22 108 95 292 218 325 218 5 0
9 5 9 10 0 6 3 9 8 8 15 -5 52 24 52 40 0 30 -59 102 -78 96 -15 -5 -15 -4 -2
5 23 17 -111 141 -198 183 -59 29 -77 33 -152 33 -47 0 -98 -4 -115 -8 -20 -6
-27 -5 -20 2 13 13 103 30 135 26 14 -2 43 -7 64 -10z m-1524 -75 c0 -5 -2
-10 -4 -10 -3 0 -8 5 -11 10 -3 6 -1 10 4 10 6 0 11 -4 11 -10z m3665 -50 c3
-5 1 -10 -4 -10 -6 0 -11 5 -11 10 0 6 2 10 4 10 3 0 8 -4 11 -10z m-3155 -30
c0 -5 -4 -10 -10 -10 -5 0 -10 5 -10 10 0 6 5 10 10 10 6 0 10 -4 10 -10z
m-800 -71 c0 -5 -7 -9 -15 -9 -15 0 -20 12 -9 23 8 8 24 -1 24 -14z m-360 1
c0 -5 -4 -10 -10 -10 -5 0 -10 5 -10 10 0 6 5 10 10 10 6 0 10 -4 10 -10z
m2680 -345 c0 -5 -5 -3 -10 5 -5 8 -10 20 -10 25 0 6 5 3 10 -5 5 -8 10 -19
10 -25z m-2650 -35 c0 -5 -4 -10 -10 -10 -5 0 -10 5 -10 10 0 6 5 10 10 10 6
0 10 -4 10 -10z m2640 -10 c0 -5 -4 -10 -10 -10 -5 0 -10 5 -10 10 0 6 5 10
10 10 6 0 10 -4 10 -10z m-700 -175 c0 -8 -4 -15 -10 -15 -5 0 -10 7 -10 15 0
8 5 15 10 15 6 0 10 -7 10 -15z m-1180 -205 c0 -5 -2 -10 -4 -10 -3 0 -8 5
-11 10 -3 6 -1 10 4 10 6 0 11 -4 11 -10z m2485 -80 c-4 -34 -9 -59 -12 -57
-2 3 -1 33 3 66 4 34 9 60 11 57 3 -3 2 -32 -2 -66z m-18 -102 c-3 -7 -5 -2
-5 12 0 14 2 19 5 13 2 -7 2 -19 0 -25z m-402 -8 c3 -5 1 -10 -4 -10 -6 0 -11
5 -11 10 0 6 2 10 4 10 3 0 8 -4 11 -10z m392 -42 c-3 -7 -5 -2 -5 12 0 14 2
19 5 13 2 -7 2 -19 0 -25z m-2618 -102 c-10 -9 -69 -36 -69 -32 0 7 52 35 64
36 5 0 7 -2 5 -4z m-80 -40 c-2 -2 -15 -9 -29 -15 -24 -11 -24 -11 -6 3 16 13
49 24 35 12z m-89 -52 c-8 -8 -23 -20 -34 -25 -13 -6 -10 0 9 15 34 29 43 33
25 10z m-67 -54 c-3 -11 -13 -20 -21 -20 -19 0 -132 -109 -132 -127 0 -7 -5
-13 -11 -13 -5 0 -24 -30 -42 -67 -29 -61 -32 -77 -32 -159 0 -84 2 -95 37
-165 36 -71 94 -141 167 -202 18 -15 31 -30 28 -33 -3 -3 -43 32 -89 78 -62
61 -94 102 -119 153 -32 65 -34 76 -34 170 0 90 3 105 29 157 35 70 85 131
161 197 32 28 59 51 61 51 1 0 0 -9 -3 -20z m207 -10 c0 -5 -4 -10 -10 -10 -5
0 -10 5 -10 10 0 6 5 10 10 10 6 0 10 -4 10 -10z m3481 -333 c-13 -13 -26 -3
-16 12 3 6 11 8 17 5 6 -4 6 -10 -1 -17z m129 -317 c0 -5 -7 -10 -15 -10 -8 0
-15 5 -15 10 0 6 7 10 15 10 8 0 15 -4 15 -10z m-4120 -60 c0 -5 -4 -10 -10
-10 -5 0 -10 5 -10 10 0 6 5 10 10 10 6 0 10 -4 10 -10z m341 -87 c13 -15 12
-15 -8 -4 -24 12 -29 21 -14 21 5 0 15 -7 22 -17z m269 -141 l25 -12 -25 6
c-33 8 -180 79 -205 99 -11 8 25 -6 80 -33 55 -26 111 -54 125 -60z m3650 88
c0 -5 -7 -10 -15 -10 -8 0 -15 5 -15 10 0 6 7 10 15 10 8 0 15 -4 15 -10z
m-4340 -10 c0 -5 -2 -10 -4 -10 -3 0 -8 5 -11 10 -3 6 -1 10 4 10 6 0 11 -4
11 -10z m3720 -90 c0 -5 -4 -10 -10 -10 -5 0 -10 5 -10 10 0 6 5 10 10 10 6 0
10 -4 10 -10z m20 -80 c0 -5 -4 -10 -10 -10 -5 0 -10 5 -10 10 0 6 5 10 10 10
6 0 10 -4 10 -10z m210 -90 c0 -5 -4 -10 -10 -10 -5 0 -10 5 -10 10 0 6 5 10
10 10 6 0 10 -4 10 -10z m410 -90 c0 -5 -4 -10 -10 -10 -5 0 -10 5 -10 10 0 6
5 10 10 10 6 0 10 -4 10 -10z m62 -155 c0 -5 -5 -11 -11 -13 -6 -2 -11 4 -11
13 0 9 5 15 11 13 6 -2 11 -8 11 -13z m-1082 -155 c0 -5 -4 -10 -10 -10 -5 0
-10 5 -10 10 0 6 5 10 10 10 6 0 10 -4 10 -10z m290 0 c0 -5 -2 -10 -4 -10 -3
0 -8 5 -11 10 -3 6 -1 10 4 10 6 0 11 -4 11 -10z m490 -94 c0 -3 -4 -8 -10
-11 -5 -3 -10 -1 -10 4 0 6 5 11 10 11 6 0 10 -2 10 -4z m-2000 -170 c0 -3 -4
-8 -10 -11 -5 -3 -10 -1 -10 4 0 6 5 11 10 11 6 0 10 -2 10 -4z m1972 -121 c0
-5 -5 -11 -11 -13 -6 -2 -11 4 -11 13 0 9 5 15 11 13 6 -2 11 -8 11 -13z
m-2012 -45 c0 -5 -4 -10 -10 -10 -5 0 -10 5 -10 10 0 6 5 10 10 10 6 0 10 -4
10 -10z m2040 -330 c0 -5 -4 -10 -10 -10 -5 0 -10 5 -10 10 0 6 5 10 10 10 6
0 10 -4 10 -10z m-1140 -70 c0 -5 -4 -10 -10 -10 -5 0 -10 5 -10 10 0 6 5 10
10 10 6 0 10 -4 10 -10z m-3035 -70 c3 -5 1 -10 -4 -10 -6 0 -11 5 -11 10 0 6
2 10 4 10 3 0 8 -4 11 -10z m-455 -450 c0 -5 -2 -10 -4 -10 -3 0 -8 5 -11 10
-3 6 -1 10 4 10 6 0 11 -4 11 -10z m3060 -60 c0 -5 -4 -10 -10 -10 -5 0 -10 5
-10 10 0 6 5 10 10 10 6 0 10 -4 10 -10z m2130 -20 c0 -5 -4 -10 -10 -10 -5 0
-10 5 -10 10 0 6 5 10 10 10 6 0 10 -4 10 -10z m-1520 -70 c0 -5 -5 -10 -11
-10 -5 0 -7 5 -4 10 3 6 8 10 11 10 2 0 4 -4 4 -10z m-100 -200 c0 -5 -4 -10
-10 -10 -5 0 -10 5 -10 10 0 6 5 10 10 10 6 0 10 -4 10 -10z"/>
<path d="M2034 4389 c-49 -11 -54 -17 -124 -134 -29 -49 -74 -116 -99 -147
-31 -39 -49 -74 -58 -110 -13 -57 -17 -240 -7 -325 6 -49 9 -53 33 -54 26 0
26 0 4 -11 -38 -18 -28 -102 13 -112 l25 -7 -21 -28 c-11 -16 -20 -37 -20 -46
0 -12 -6 -9 -24 12 -18 20 -27 25 -37 17 -8 -6 -43 -21 -79 -33 -167 -59 -392
-203 -472 -304 -72 -92 -73 -96 -49 -234 12 -67 21 -137 21 -157 0 -27 8 -44
34 -70 18 -20 36 -42 39 -50 3 -8 25 -29 49 -45 24 -16 50 -36 58 -43 43 -38
252 -155 262 -147 2 1 23 -8 47 -20 24 -13 54 -21 67 -18 14 2 24 -1 25 -7 0
-6 7 4 15 22 18 41 25 41 13 0 -12 -44 -12 -46 5 -22 23 32 108 293 100 305
-5 8 -3 9 6 4 10 -6 12 -4 7 8 -3 9 7 46 23 83 34 75 36 89 16 130 -35 72 -77
176 -73 180 2 3 18 -27 36 -66 17 -38 35 -70 40 -70 5 0 12 -10 15 -22 6 -23
6 -23 22 -3 24 31 222 439 260 537 19 48 50 120 69 161 19 41 35 77 35 82 0 4
-39 5 -87 2 -102 -7 -73 7 36 18 67 7 75 10 121 54 27 25 64 64 82 87 78 97
184 222 226 266 31 33 43 52 38 64 -4 9 -9 14 -12 11 -3 -3 -22 6 -42 19 -53
37 -76 39 -145 14 -85 -30 -102 -33 -141 -26 -37 7 -90 52 -101 86 -6 20 -7
21 -21 3 -16 -22 -19 -1 -3 29 11 20 3 96 -8 84 -3 -3 -13 5 -23 17 -15 17
-30 22 -86 24 -38 1 -88 -3 -110 -8z m456 -319 c0 -5 -2 -10 -4 -10 -3 0 -8 5
-11 10 -3 6 -1 10 4 10 6 0 11 -4 11 -10z m-90 -31 c0 -6 -4 -7 -10 -4 -5 3
-10 11 -10 16 0 6 5 7 10 4 6 -3 10 -11 10 -16z m-990 -944 c0 -8 -4 -15 -10
-15 -5 0 -10 7 -10 15 0 8 5 15 10 15 6 0 10 -7 10 -15z m430 -399 c0 -3 -4
-8 -10 -11 -5 -3 -10 -1 -10 4 0 6 5 11 10 11 6 0 10 -2 10 -4z m-7 -131 c-3
-9 -8 -14 -10 -11 -3 3 -2 9 2 15 9 16 15 13 8 -4z m-24 -64 c-6 -18 -13 -30
-15 -28 -2 2 1 18 7 36 6 18 13 30 15 28 2 -2 -1 -18 -7 -36z"/>
<path d="M2890 4170 c-25 -21 -40 -39 -35 -40 6 0 29 18 50 40 50 51 43 51
-15 0z"/>
<path d="M2819 4103 c-13 -16 -12 -17 4 -4 16 13 21 21 13 21 -2 0 -10 -8 -17
-17z"/>
<path d="M2441 3622 c-11 -22 -63 -86 -116 -143 -100 -107 -159 -197 -206
-309 -15 -36 -49 -110 -77 -165 -27 -55 -57 -125 -66 -155 l-17 -55 34 -65
c18 -36 39 -64 45 -63 7 2 12 -2 12 -8 0 -32 224 -378 296 -457 l42 -47 238 1
c203 2 551 25 573 38 3 2 22 35 41 73 24 46 60 93 116 148 44 44 96 103 116
130 20 28 48 61 63 75 42 39 95 134 95 169 0 19 -4 30 -10 26 -6 -3 -7 1 -4 9
18 47 -178 462 -333 704 -57 90 -72 94 -373 114 -85 5 -221 12 -302 15 l-147
4 -20 -39z m179 -502 c0 -5 -4 -10 -10 -10 -5 0 -10 5 -10 10 0 6 5 10 10 10
6 0 10 -4 10 -10z m120 -16 c0 -9 -5 -14 -12 -12 -18 6 -21 28 -4 28 9 0 16
-7 16 -16z m126 -8 l-29 -13 36 -7 c46 -9 100 -63 123 -122 20 -52 13 -111
-19 -169 -28 -51 -101 -90 -150 -81 -83 16 -143 87 -153 181 -5 55 -3 64 25
108 34 52 36 57 21 57 -5 0 -10 -7 -10 -15 0 -8 -4 -15 -10 -15 -22 0 -61 -55
-77 -108 -13 -42 -18 -51 -21 -34 -7 44 53 152 84 152 8 0 14 6 14 13 0 13 49
47 85 59 11 3 40 6 65 6 45 0 45 0 16 -12z m-206 -22 c0 -8 -5 -12 -10 -9 -6
4 -8 11 -5 16 9 14 15 11 15 -7z m150 -434 c0 -5 -4 -10 -10 -10 -5 0 -10 5
-10 10 0 6 5 10 10 10 6 0 10 -4 10 -10z m160 -130 c0 -5 -4 -10 -10 -10 -5 0
-10 5 -10 10 0 6 5 10 10 10 6 0 10 -4 10 -10z m-70 -30 c0 -5 -4 -10 -10 -10
-5 0 -10 5 -10 10 0 6 5 10 10 10 6 0 10 -4 10 -10z m110 -10 c0 -5 -4 -10
-10 -10 -5 0 -10 5 -10 10 0 6 5 10 10 10 6 0 10 -4 10 -10z"/>
<path d="M3286 3591 c-3 -4 24 -57 60 -117 68 -112 169 -315 231 -464 54 -131
57 -134 64 -75 6 49 6 49 7 -17 2 -66 18 -92 29 -48 5 20 23 28 23 10 0 -5 -7
-25 -16 -44 -17 -34 -16 -36 47 -228 34 -106 67 -196 71 -199 5 -3 6 -13 3
-22 -4 -10 1 -20 15 -27 17 -9 25 -7 47 9 14 12 31 21 37 21 5 0 29 7 52 16
l42 16 4 64 c3 54 9 69 33 95 58 62 162 84 196 43 17 -20 35 -17 66 12 15 14
44 35 63 47 39 25 99 126 100 168 0 14 -12 44 -27 65 -14 21 -40 66 -57 99
-25 48 -35 60 -51 57 -19 -4 -19 -3 -3 15 26 28 6 93 -42 137 -58 53 -330 208
-330 189 0 -5 -4 -3 -8 2 -15 21 -62 35 -82 25 -15 -8 -24 -4 -47 18 -20 21
-52 34 -118 51 -49 12 -101 27 -114 32 -26 11 -253 59 -277 59 -7 0 -15 -4
-18 -9z m909 -891 c3 -5 18 -11 33 -11 21 -1 23 -2 7 -6 -11 -3 -25 -9 -32
-15 -7 -6 -14 -5 -18 2 -3 5 -15 10 -25 10 -13 0 -17 5 -14 15 7 17 40 20 49
5z"/>
<path d="M1896 2653 c-40 -121 -86 -305 -86 -344 0 -14 5 -30 12 -37 8 -8 8
-15 -1 -26 -7 -8 -10 -19 -7 -24 3 -6 -3 -12 -14 -15 -22 -6 -35 -46 -26 -81
3 -14 30 -49 60 -78 61 -60 83 -113 71 -175 -5 -29 -22 -52 -71 -100 -35 -34
-64 -65 -64 -70 1 -18 41 -127 52 -140 7 -9 50 -33 96 -54 47 -21 116 -64 155
-96 58 -47 76 -56 106 -55 55 3 144 29 153 46 5 8 15 13 22 10 8 -3 43 9 77
26 92 46 309 191 309 207 0 7 7 13 15 13 31 0 13 38 -46 95 -33 33 -119 126
-190 206 -153 173 -156 174 -339 184 -132 7 -253 26 -317 50 l-38 14 60 -6
c33 -3 76 -9 95 -14 20 -5 63 -8 97 -8 34 1 65 -1 70 -4 4 -3 42 -8 84 -11 96
-8 107 5 56 68 -19 22 -75 106 -125 186 -51 80 -96 151 -102 157 -6 7 -14 21
-18 31 -17 44 -87 152 -98 152 -7 0 -28 -48 -48 -107z m334 -1244 c0 -5 -4 -9
-10 -9 -5 0 -10 7 -10 16 0 8 5 12 10 9 6 -3 10 -10 10 -16z"/>
<path d="M3637 2737 c-26 -40 -99 -190 -122 -252 -13 -33 -44 -104 -68 -157
-42 -91 -44 -98 -25 -98 20 0 131 26 158 37 8 3 18 6 22 5 4 -1 36 7 73 19 97
30 103 42 71 171 -24 102 -84 298 -90 298 -2 0 -10 -10 -19 -23z"/>
<path d="M3680 2263 c-36 -7 -72 -16 -80 -19 -8 -4 -26 -8 -40 -10 -14 -2 -59
-10 -100 -19 l-75 -15 -126 -130 c-71 -73 -141 -136 -160 -144 -40 -17 -210
-204 -221 -243 -5 -20 -2 -30 15 -44 24 -20 155 -99 165 -99 3 0 14 -8 25 -17
15 -13 21 -15 24 -5 7 20 35 15 29 -6 -5 -13 4 -22 37 -36 42 -18 125 -46 140
-46 4 0 21 21 37 47 35 55 39 50 9 -9 -15 -29 -17 -43 -9 -48 22 -13 135 -11
178 4 23 8 46 14 50 13 13 -3 90 124 155 253 l62 125 0 190 c0 209 -6 261 -33
267 -9 2 -46 -2 -82 -9z m-216 -547 c-9 -26 -18 -45 -20 -43 -2 2 3 25 12 51
9 26 18 45 20 43 2 -2 -3 -25 -12 -51z m256 -16 c0 -5 -2 -10 -4 -10 -3 0 -8
5 -11 10 -3 6 -1 10 4 10 6 0 11 -4 11 -10z m-306 -109 c-15 -34 -28 -60 -30
-58 -2 2 8 31 23 65 14 34 28 60 30 58 2 -2 -8 -31 -23 -65z m-184 -41 c0 -5
-4 -10 -10 -10 -5 0 -10 5 -10 10 0 6 5 10 10 10 6 0 10 -4 10 -10z"/>
<path d="M3090 2159 c-54 -8 -285 -23 -542 -35 -77 -4 -128 -10 -128 -16 0
-28 251 -294 341 -361 63 -47 78 -41 208 91 101 102 123 131 169 219 28 55 52
103 52 107 0 7 -27 6 -100 -5z"/>
</g>
</svg>
